<?xml version="1.0" standalone="no"?>
<!DOCTYPE svg PUBLIC "-//W3C//DTD SVG 20010904//EN"
 "http://www.w3.org/TR/2001/REC-SVG-20010904/DTD/svg10.dtd">
<svg version="1.0" xmlns="http://www.w3.org/2000/svg"
 width="144.000000pt" height="147.000000pt" viewBox="0 0 144.000000 147.000000"
 preserveAspectRatio="xMidYMid meet">

<g transform="translate(0.000000,147.000000) scale(0.100000,-0.100000)"
fill="#BC6E11" stroke="none">
<path d="M434 1215 c-12 -8 -27 -28 -34 -45 -16 -39 -29 -38 -63 5 -36 45 -46
44 -40 -4 5 -38 5 -39 -41 -59 -55 -25 -84 -55 -141 -143 -24 -37 -57 -76 -75
-89 -22 -16 -28 -26 -21 -33 18 -18 128 -26 225 -16 152 14 353 -18 376 -60 6
-13 4 -22 -11 -35 -19 -16 -19 -19 -6 -39 8 -12 24 -23 36 -23 12 -1 24 -4 28
-8 9 -9 -28 -46 -46 -46 -9 0 -38 -12 -66 -27 -96 -52 -273 -28 -331 44 l-21
26 -21 -21 c-29 -29 -28 -71 3 -116 17 -25 21 -38 12 -41 -18 -5 -67 -16 -105
-22 -34 -5 -55 -23 -28 -23 9 0 16 -7 16 -15 0 -9 9 -15 24 -15 13 0 26 -6 29
-14 3 -7 19 -16 36 -19 39 -8 49 -31 27 -67 -18 -31 -21 -50 -8 -50 5 0 17 18
27 40 10 22 24 40 30 40 7 0 41 -23 76 -51 40 -32 65 -46 68 -38 4 12 -12 29
-79 81 -44 35 -34 45 19 19 41 -21 81 -28 81 -13 0 4 -19 14 -42 22 -25 9 -43
21 -43 30 0 8 -10 23 -22 33 -21 17 -73 111 -73 133 0 8 20 4 58 -12 70 -29
221 -35 242 -9 14 17 34 9 26 -11 -8 -20 7 -17 27 6 9 11 26 20 36 20 11 0 23
4 26 10 4 6 17 4 36 -5 28 -15 29 -15 29 8 0 13 -5 28 -11 34 -8 8 -7 13 2 18
17 11 49 -31 49 -66 0 -15 -4 -31 -10 -34 -15 -9 -12 -58 5 -82 13 -19 13 -23
-6 -47 -19 -24 -27 -26 -94 -26 -54 0 -74 -4 -78 -14 -5 -12 5 -16 41 -19 40
-3 43 -5 23 -12 -49 -17 -145 -70 -149 -83 -3 -10 6 -9 34 4 89 38 153 58 161
50 4 -4 -9 -21 -29 -38 -36 -28 -48 -48 -30 -48 5 0 27 16 49 35 23 19 50 35
60 35 10 0 27 6 38 14 11 7 68 29 127 49 59 20 121 43 138 52 29 15 30 15 30
-7 -1 -13 -7 -34 -15 -48 -17 -29 -19 -60 -5 -60 5 0 19 18 30 39 11 22 24 43
30 46 19 12 81 -17 131 -61 66 -59 87 -70 96 -49 4 12 -13 36 -57 80 -80 81
-61 94 59 43 27 -11 48 -15 53 -10 15 15 -28 39 -103 59 l-67 17 65 61 c36 33
79 65 96 70 93 33 66 155 -43 199 -37 15 -44 14 -103 -4 -35 -11 -80 -31 -100
-44 l-35 -24 -29 36 c-16 21 -42 59 -57 85 -27 47 -29 48 -65 42 -28 -5 -43
-2 -54 9 -9 9 -25 16 -37 16 -27 0 -61 18 -78 42 -7 10 -19 18 -27 18 -19 0
-35 32 -35 69 0 16 -10 42 -24 58 -12 15 -29 39 -35 51 l-13 24 -22 -21 c-71
-67 -182 -11 -156 78 10 35 4 38 -26 16z"/>
<path d="M500 1195 c-28 -29 -21 -41 30 -49 26 -5 41 -1 60 14 l25 20 -25 20
c-34 27 -62 25 -90 -5z"/>
<path d="M156 1179 c-16 -23 -15 -24 11 -37 24 -11 34 -11 67 3 34 14 37 18
24 31 -8 8 -30 17 -50 20 -29 5 -38 2 -52 -17z"/>
<path d="M380 783 c14 -2 42 -8 64 -13 22 -5 35 -5 30 0 -5 5 -34 11 -64 13
-30 3 -44 3 -30 0z"/>
<path d="M525 460 c-13 -6 -15 -9 -5 -9 8 0 22 4 30 9 18 12 2 12 -25 0z"/>
<path d="M730 411 c0 -11 -8 -25 -17 -31 -10 -6 -12 -10 -4 -8 21 6 45 45 32
53 -7 3 -11 -2 -11 -14z"/>
<path d="M468 363 c12 -2 30 -2 40 0 9 3 -1 5 -23 4 -22 0 -30 -2 -17 -4z"/>
</g>
</svg>
